<?xml version="1.0" encoding="utf-8"?>
<!-- Generator: Adobe Illustrator 21.0.0, SVG Export Plug-In . SVG Version: 6.00 Build 0)  -->
<svg version="1.1" id="Layer_1" xmlns="http://www.w3.org/2000/svg" xmlns:xlink="http://www.w3.org/1999/xlink" x="0px" y="0px"
	 viewBox="0 0 311.3 450.7" style="enable-background:new 0 0 311.3 450.7;" xml:space="preserve">
<style type="text/css">
	.st0{fill:#CCCCCC;}
</style>
<title>Asset 7</title>
<g id="Layer_2">
	<g id="Layer_1-2">
		<path class="st0" d="M50.1,227.1l7.2-9.2l0,0l16.4-9.5l16.4,9.5v56.8l20.3-49.6l0.4-0.2l-3.6-2.1l7.4-9.6v16.7l16.4,21.2v-56.7
			l-16.4-9.5l-20.5,26l-20.5-49.6l-16.4-9.5V194l0,0l-20.3-11.7l-0.4,0.2l-2.4,5.9L50.1,227.1z M81.2,207.8l-7.5-4.3v-13.9
			L81.2,207.8z"/>
		<polygon class="st0" points="57.3,217.9 50.1,227.1 50.1,227.1 36.9,243.9 16.4,194.3 0,184.8 0,269.9 16.4,279.4 16.4,222.6 
			32.8,262.7 32.8,262.7 36.7,272.2 37.1,272.4 57.3,246.3 57.3,258 57.3,258 57.3,303 73.7,312.5 73.7,227.4 		"/>
		<path class="st0" d="M214,227.1l7.2-9.2l0,0l16.4-9.5l16.4,9.5v56.8l20.3-49.6l0.4-0.2l-3.6-2.1l7.4-9.6v16.7l16.4,21.2v-56.7
			l-16.4-9.5l-20.5,26l-20.5-49.7l-16.4-9.5V194l0,0l-20.3-11.7l-0.4,0.2l-2.4,5.9L214,227.1z M245,207.8l-7.5-4.3v-13.9L245,207.8z
			"/>
		<polygon class="st0" points="221.2,217.9 214,227.1 214,227.1 200.8,243.9 180.2,194.3 163.9,184.8 163.9,269.9 180.2,279.4 
			180.2,222.6 196.6,262.7 196.6,262.7 200.5,272.2 201,272.4 221.2,246.3 221.2,258 221.2,258 221.2,303 237.6,312.5 237.6,227.4 
					"/>
	</g>
	<g id="Layer_2-2">
		<path class="st0" d="M74,190.8l6.7,16.4l-6.7-3.9V190.8 M73.8,189.5v13.9l7.5,4.3L73.8,189.5z"/>
		<path class="st0" d="M16.6,223.9l15.9,38.8v7.1L16.6,279V223.9 M16.4,222.6v56.8l0,0l16.4-9.5v-7.3L16.4,222.6L16.4,222.6z"/>
		<path class="st0" d="M16.4,175.6l16.2,9.5L49.8,227L37,243.4l-20.4-49.3v-0.1h-0.1l-16-9.3L16.4,175.6 M16.4,175.3L0,184.8l0,0
			l16.4,9.5l20.5,49.7l13.2-16.9l-17.4-42.2L16.4,175.3L16.4,175.3z"/>
		<path class="st0" d="M131.1,175.6l16.1,9.3v84.8l-16.1,9.3l-16.2-9.4l-7.2-9l-0.3-0.3l-0.2,0.4l-17.4,42.1L74,312.1v-84.8
			l-0.1-0.1l-16-9.2l15.9-9.2l16.1,9.3v57.9l0.5-1.2l20.3-49.5l0.3-0.2l0.4-0.2l-0.4-0.2l-3.3-1.9l6.8-8.8v16l0.1,0.1l16.4,21.2
			l0.4,0.6v-57.6l-0.1-0.1l-16-9.2L131.1,175.6 M131.1,175.3l-16.4,9.4l16.4,9.5V251l-16.4-21.2v-16.6l-7.4,9.6l3.6,2.1l-0.4,0.2
			l-20.3,49.6v-56.8l-16.4-9.5l-16.4,9.5l0,0l16.4,9.5v85.1l0,0l16.2-9.4l17.4-42.1l7.2,9l16.4,9.5l16.4-9.5v-85.1L131.1,175.3
			L131.1,175.3z"/>
		<path class="st0" d="M73.7,142.5l16.2,9.3l17.3,41.9l-12.9,16.5L74,161.1V161h-0.1l-16-9.2L73.7,142.5 M73.8,142.3l-16.4,9.5
			l16.4,9.5l20.5,49.7l13.2-17l-17.5-42.2L73.8,142.3L73.8,142.3z"/>
		<g>
			<path class="st0" d="M132.8,84.8l7.2-9.2l0,0l16.4-9.5l16.4,9.5v56.8l20.3-49.6l0.4-0.2l-3.6-2.1l7.4-9.6v16.7l16.4,21.2V52
				l-16.4-9.5l-20.4,26l-20.5-49.6L140,9.5v42.3l0,0l-20.3-11.7l-0.4,0.2l-2.4,5.9L132.8,84.8z M163.8,65.5l-7.5-4.3V47.3
				L163.8,65.5z"/>
			<polygon class="st0" points="140,75.7 132.8,84.8 132.8,84.8 119.5,101.7 99,52 82.7,42.6 82.7,127.7 99,137.2 99,80.4 
				115.4,120.4 115.4,120.4 119.3,130 119.8,130.2 140,104.1 140,115.8 140,115.8 140,160.8 156.4,170.3 156.4,85.1 			"/>
			<path class="st0" d="M156.6,48.6l6.7,16.4l-6.7-3.9V48.6 M156.4,47.3v13.9l7.5,4.3L156.4,47.3L156.4,47.3z"/>
			<path class="st0" d="M99.3,81.7l15.9,38.8v7.1l-15.9,9.2L99.3,81.7 M99,80.4v56.7l0,0l16.4-9.5v-7.3L99,80.4z"/>
			<path class="st0" d="M99,33.4l16.2,9.5l17.3,41.9l-12.9,16.4L99.3,51.9v-0.1h-0.1l-16-9.2L99,33.4 M99,33.1l-16.3,9.5l0,0L99,52
				l20.5,49.7l13.3-16.9l-17.3-42.1L99,33.1z"/>
			<path class="st0" d="M213.7,33.4l16.1,9.3v84.8l-16.1,9.3l-16.2-9.4l-7.2-9l-0.3-0.3l-0.2,0.4l-17.4,42.1l-15.9,9.2V85l-0.1-0.1
				l-16-9.2l15.9-9.2l16.1,9.3v57.9l0.5-1.2L193.3,83l0.4-0.2l0.4-0.2l-0.4-0.2l-3.3-1.9l6.8-8.8v16l0.1,0.1l16.4,21.2l0.4,0.6V51.9
				l-0.1-0.1l-16-9.2L213.7,33.4 M213.8,33.1l-16.4,9.4l16.4,9.4v56.8l-16.4-21.2V70.9l-7.4,9.6l3.6,2.1l-0.4,0.2l-20.3,49.6V75.7
				l-16.4-9.5L140,75.7l0,0l16.4,9.5v85.1l0,0l16.3-9.4l17.4-42.1l7.2,9l16.4,9.5l16.4-9.4V42.6L213.8,33.1L213.8,33.1z"/>
			<path class="st0" d="M156.4,0.3l16.2,9.3l17.3,41.9l-12.9,16.5l-20.3-49.3v-0.1h-0.1l-16-9.2L156.4,0.3 M156.4,0L140,9.5
				l16.4,9.5l20.5,49.7l13.2-17L172.8,9.5L156.4,0z"/>
		</g>
		<g>
			<path class="st0" d="M132.8,365.3l7.2-9.2l0,0l16.4-9.5l16.4,9.5v56.8l20.3-49.6l0.4-0.2l-3.6-2.1l7.4-9.6V368l16.4,21.2v-56.7
				l-16.4-9.5l-20.4,26l-20.5-49.7l-16.4-9.4v42.3l0,0l-20.3-11.7l-0.4,0.2l-2.4,5.9L132.8,365.3z M163.8,346l-7.5-4.3v-14
				L163.8,346z"/>
			<polygon class="st0" points="140,356.1 132.8,365.3 132.8,365.3 119.5,382.1 99,332.5 82.7,323 82.7,408.1 99,417.6 99,360.9 
				115.4,400.9 115.4,400.9 119.3,410.4 119.8,410.6 140,384.5 140,396.2 140,396.2 140,441.2 156.4,450.7 156.4,365.6 			"/>
			<path class="st0" d="M156.6,329l6.7,16.4l-6.7-3.9V329 M156.4,327.7v13.9l7.5,4.3L156.4,327.7z"/>
			<path class="st0" d="M99.3,362.1l15.9,38.8v7.1l-15.9,9.2L99.3,362.1 M99,360.9v56.8l0,0l16.4-9.5v-7.3L99,360.9L99,360.9z"/>
			<path class="st0" d="M99,313.8l16.2,9.5l17.3,41.9l-12.9,16.4l-20.3-49.3v-0.1h-0.1l-16-9.2L99,313.8 M99,313.5L82.7,323l0,0
				l16.3,9.5l20.5,49.7l13.3-16.9l-17.4-42.2L99,313.5z"/>
			<path class="st0" d="M213.7,313.9l16.1,9.3V408l-16.1,9.3l-16.2-9.4l-7.2-9l-0.3-0.3l-0.2,0.4l-17.4,42.1l-15.9,9.2v-84.8
				l-0.1-0.1l-16-9.2l15.9-9.2l16.1,9.3v57.9l0.5-1.1l20.3-49.5l0.4-0.2l0.4-0.2l-0.4-0.2l-3.3-1.9l6.8-8.8v16l0.1,0.1l16.4,21.2
				l0.4,0.6v-57.6l-0.1-0.1l-16-9.2L213.7,313.9 M213.8,313.6l-16.4,9.4l16.4,9.5v56.8L197.3,368v-16.6l-7.4,9.6l3.6,2.1l-0.4,0.2
				l-20.3,49.6v-56.8l-16.4-9.5l-16.4,9.5l0,0l16.4,9.5v85.1l0,0l16.3-9.4l17.4-42.1l7.2,9l16.4,9.5l16.4-9.5V323L213.8,313.6
				L213.8,313.6z"/>
			<path class="st0" d="M156.4,280.7l16.2,9.3l17.3,41.9l-12.9,16.5l-20.3-49.3v-0.1h-0.1l-16-9.2L156.4,280.7 M156.4,280.5
				l-16.4,9.4l16.4,9.5l20.5,49.6l13.2-17l-17.4-42.1L156.4,280.5L156.4,280.5z"/>
		</g>
		<path class="st0" d="M237.8,190.8l6.7,16.4l-6.7-3.9V190.8 M237.6,189.5v13.9l7.5,4.3L237.6,189.5z"/>
		<path class="st0" d="M180.5,223.9l15.9,38.8v7.1l-15.9,9.2V223.9 M180.2,222.6v56.8l0,0l16.4-9.5v-7.3L180.2,222.6L180.2,222.6z"
			/>
		<path class="st0" d="M180.2,175.6l16.2,9.5l17.3,41.9l-12.9,16.4l-20.3-49.3v-0.1h-0.1l-16-9.2L180.2,175.6 M180.3,175.4
			l-16.4,9.5l0,0l16.4,9.5l20.5,49.7l13.2-16.9l-17.4-42.2L180.3,175.4L180.3,175.4z"/>
		<path class="st0" d="M295,175.6l16.1,9.3v84.8l-16.1,9.3l-16.2-9.4l-7.2-9l-0.3-0.3l-0.2,0.4l-17.4,42.1l-15.9,9.2v-84.9l-0.1-0.1
			l-16-9.2l15.9-9.2l16.1,9.3v57.9l0.5-1.2l20.3-49.5l0.4-0.2l0.4-0.2l-0.4-0.2l-3.3-1.9l6.8-8.8v16l0,0.1l16.4,21.2l0.5,0.6v-57.6
			L295,194l-16-9.2L295,175.6 M294.9,175.3l-16.4,9.4l16.4,9.5V251l-16.4-21.2v-16.6l-7.4,9.6l3.6,2.1l-0.4,0.2L254,274.7v-56.8
			l-16.4-9.5l-16.4,9.5l0,0l16.4,9.5v85.1l0,0l16.3-9.4l17.4-42.1l7.2,9l16.4,9.5l16.4-9.5v-85.1L294.9,175.3L294.9,175.3z"/>
		<path class="st0" d="M237.6,142.5l16.2,9.3l17.2,41.9l-12.9,16.5l-20.3-49.3V161h-0.1l-16-9.2L237.6,142.5 M237.6,142.3l-16.4,9.5
			l16.4,9.5l20.5,49.7l13.2-17L254,151.7L237.6,142.3L237.6,142.3z"/>
	</g>
</g>
</svg>
