<svg xmlns="http://www.w3.org/2000/svg" viewBox="0 0 147.47 170.26">
  <defs>
    <style>
      .cls-1 {
        fill: #f1f1f1;
      }
    </style>
  </defs>
  <title>Asset 2</title>
  <g id="Layer_2" data-name="Layer 2">
    <g id="Layer_1-2" data-name="Layer 1">
      <path class="cls-1" d="M50.14,84.84l7.21-9.17h0l16.38-9.46,16.38,9.46v56.75l20.3-49.56.42-.24-3.59-2.07,7.44-9.61V87.6l16.38,21.18V52l-16.38-9.46-20.45,26L73.72,18.92,57.34,9.46V51.77h0L37.08,40.08l-.42.24-2.42,5.93ZM81.19,65.53l-7.47-4.31V47.29Z"/>
      <polygon class="cls-1" points="57.34 75.67 50.14 84.84 50.14 84.84 36.89 101.7 16.38 52.02 0 42.57 0 127.7 16.38 137.16 16.38 80.4 32.78 120.43 32.78 120.43 36.69 129.96 37.11 130.2 57.34 104.05 57.34 115.77 57.34 115.77 57.34 160.8 73.73 170.26 73.73 85.13 57.34 75.67"/>
    </g>
    <g id="Layer_2-2" data-name="Layer 2">
      <path class="cls-1" d="M74,48.56l6.71,16.38L74,61.07V48.56m-.25-1.27V61.22l7.47,4.31L73.72,47.29Z"/>
      <path class="cls-1" d="M16.63,81.67l15.9,38.8v7.08l-15.88,9.17V81.67m-.25-1.27v56.75h0l16.38-9.46v-7.27l-16.4-40Z"/>
      <path class="cls-1" d="M16.38,33.4l16.19,9.46L49.85,84.8,37,101.21,16.61,51.93l0-.08-.07,0L.5,42.57,16.38,33.4m0-.29L0,42.57H0L16.38,52,36.89,101.7,50.14,84.84,32.77,42.69,16.38,33.11Z"/>
      <path class="cls-1" d="M131.09,33.41l16.13,9.31v84.84l-16.15,9.31-16.22-9.36-7.18-9-.26-.33-.16.39L89.84,160.67,74,169.83V85l-.12-.07-16-9.24L73.73,66.5l16.13,9.31v57.88l.48-1.17L110.61,83l.35-.2.38-.22-.38-.22-3.34-1.93,6.81-8.81v16l.05.07,16.38,21.18.45.58V51.88l-.12-.07-16-9.24,15.91-9.16m0-.29-16.41,9.44L131.07,52v56.75L114.68,87.6V70.94l-7.44,9.61,3.59,2.07-.42.24-20.3,49.56V75.67L73.73,66.21,57.34,75.67h0l16.38,9.46v85.13h0L90,160.85l17.44-42.14,7.21,9,16.39,9.46,16.4-9.45V42.57l-16.38-9.45Z"/>
      <path class="cls-1" d="M73.73.29,89.91,9.63l17.28,41.94L94.3,68.1,74,18.82l0-.08-.07,0-16-9.24L73.73.29m0-.29L57.34,9.46l16.38,9.46L94.23,68.59l13.25-17L90.11,9.46,73.73,0Z"/>
    </g>
  </g>
</svg>
