<svg xmlns="http://www.w3.org/2000/svg" viewBox="0 0 311.33 450.71">
  <defs>
    <style>
      .cls-1 {
        fill: #d1d2d3;
      }
    </style>
  </defs>
  <title>Asset 6</title>
  <g id="Layer_2" data-name="Layer 2">
    <g id="Layer_1-2" data-name="Layer 1">
      <path class="cls-1" d="M50.14,227.08l7.21-9.17h0l16.38-9.46,16.38,9.46v56.75l20.3-49.56.42-.24-3.59-2.07,7.44-9.61v16.66L131.07,251V194.26l-16.38-9.46-20.45,26L73.72,161.15l-16.38-9.46V194h0L37.08,182.31l-.42.24-2.42,5.93Zm31.06-19.32-7.47-4.31V189.53Z"/>
      <polygon class="cls-1" points="57.34 217.91 50.14 227.08 50.14 227.08 36.89 243.93 16.38 194.26 0 184.8 0 269.93 16.38 279.39 16.38 222.63 32.78 262.66 32.78 262.66 36.69 272.19 37.11 272.44 57.34 246.28 57.34 258 57.34 258 57.34 303.04 73.73 312.5 73.73 227.37 57.34 217.91"/>
      <path class="cls-1" d="M214,227.08l7.21-9.17h0l16.38-9.46L254,217.91v56.75l20.3-49.56.42-.24-3.59-2.07,7.44-9.61v16.66L294.92,251V194.26l-16.38-9.46-20.45,26-20.51-49.68-16.38-9.46V194h0l-20.26-11.69-.42.24-2.42,5.93ZM245,207.76l-7.47-4.31V189.53Z"/>
      <polygon class="cls-1" points="221.2 217.91 213.99 227.08 213.99 227.08 200.75 243.93 180.24 194.26 163.86 184.8 163.86 269.93 180.24 279.39 180.24 222.63 196.64 262.66 196.64 262.66 200.54 272.19 200.96 272.44 221.2 246.28 221.2 258 221.2 258 221.2 303.04 237.58 312.5 237.58 227.37 221.2 217.91"/>
    </g>
    <g id="Layer_2-2" data-name="Layer 2">
      <path class="cls-1" d="M74,190.8l6.71,16.38L74,203.31V190.8m-.25-1.27v13.92l7.47,4.31-7.47-18.23Z"/>
      <path class="cls-1" d="M16.63,223.91l15.9,38.8v7.08L16.63,279V223.91m-.25-1.27v56.75h0l16.38-9.46v-7.27l-16.4-40Z"/>
      <path class="cls-1" d="M16.38,175.63l16.19,9.46L49.85,227,37,243.44,16.61,194.16l0-.08-.07,0L.5,184.8l15.88-9.17m0-.29L0,184.8H0l16.38,9.46,20.51,49.68,13.25-16.86L32.77,184.92l-16.38-9.58Z"/>
      <path class="cls-1" d="M131.09,175.64l16.13,9.31v84.84l-16.15,9.31-16.22-9.36-7.18-9-.26-.33-.16.39L89.84,302.91,74,312.06V227.22l-.12-.07-16-9.24,15.88-9.17,16.13,9.31v57.88l.48-1.17,20.27-49.48.35-.2.38-.22-.38-.22-3.34-1.93,6.81-8.81v16l.05.07,16.38,21.18.45.58V194.11l-.12-.07-16-9.24,15.91-9.16m0-.29-16.41,9.44,16.38,9.46V251l-16.38-21.18V213.18l-7.44,9.61,3.59,2.07-.42.24-20.3,49.56V217.91l-16.38-9.46-16.38,9.46h0l16.38,9.46V312.5h0L90,303.08l17.44-42.14,7.21,9,16.39,9.46,16.4-9.45V184.81l-16.38-9.45Z"/>
      <path class="cls-1" d="M73.73,142.52l16.18,9.34,17.28,41.94L94.3,210.33,74,161.05l0-.08-.07,0-16-9.24,15.89-9.17m0-.29-16.39,9.46,16.38,9.46,20.51,49.68,13.25-17L90.11,151.69l-16.38-9.46Z"/>
      <g>
        <path class="cls-1" d="M132.79,84.84,140,75.67h0l16.38-9.46,16.38,9.46v56.75l20.3-49.56.42-.24-3.59-2.07,7.44-9.61V87.6l16.38,21.18V52l-16.38-9.46-20.45,26L156.38,18.92,140,9.46V51.77h0L119.73,40.08l-.42.24-2.42,5.93Zm31.06-19.32-7.47-4.31V47.29Z"/>
        <polygon class="cls-1" points="139.99 75.67 132.79 84.84 132.79 84.84 119.54 101.7 99.03 52.02 82.65 42.57 82.65 127.7 99.03 137.16 99.03 80.4 115.43 120.43 115.43 120.43 119.34 129.96 119.76 130.2 139.99 104.05 139.99 115.77 139.99 115.77 140 160.8 156.38 170.26 156.38 85.13 139.99 75.67"/>
        <path class="cls-1" d="M156.63,48.56l6.71,16.38-6.71-3.87V48.56m-.25-1.27V61.22l7.47,4.31-7.47-18.23Z"/>
        <path class="cls-1" d="M99.29,81.67l15.9,38.8v7.08l-15.88,9.17V81.67M99,80.4v56.75h0l16.38-9.46v-7.27L99,80.4Z"/>
        <path class="cls-1" d="M99,33.4l16.19,9.46L132.5,84.8l-12.89,16.41L99.27,51.93l0-.08-.07,0-16-9.24L99,33.4m0-.29L82.65,42.57h0L99,52l20.51,49.68,13.25-16.86L115.42,42.69,99,33.11Z"/>
        <path class="cls-1" d="M213.74,33.41l16.13,9.31v84.84l-16.15,9.31L197.5,127.5l-7.18-9-.26-.33-.16.39-17.41,42.06-15.86,9.16V85l-.12-.07-16-9.24,15.88-9.17,16.13,9.31v57.88l.48-1.17L193.26,83l.35-.2.38-.22-.38-.22-3.34-1.93,6.81-8.81v16l.05.07,16.38,21.18.45.58V51.88l-.12-.07-16-9.24,15.91-9.16m0-.29-16.41,9.44L213.72,52v56.75L197.33,87.6V70.94l-7.44,9.61,3.59,2.07-.42.24-20.3,49.56V75.67l-16.38-9.46L140,75.67h0l16.38,9.46v85.13h0l16.31-9.41,17.44-42.14,7.21,9,16.39,9.46,16.4-9.45V42.57l-16.38-9.45Z"/>
        <path class="cls-1" d="M156.38.29l16.18,9.34,17.28,41.94L176.95,68.1,156.61,18.82l0-.08-.07,0-16-9.24L156.38.29m0-.29L140,9.46l16.38,9.46,20.51,49.68,13.25-17L172.76,9.46,156.38,0Z"/>
      </g>
      <g>
        <path class="cls-1" d="M132.79,365.29l7.21-9.17h0l16.38-9.46,16.38,9.46v56.75l20.3-49.56.42-.24L189.9,361l7.44-9.61V368l16.38,21.18V332.47L197.33,323l-20.45,26-20.51-49.68L140,289.9v42.31h0l-20.26-11.69-.42.24-2.42,5.93ZM163.84,346l-7.47-4.31V327.74Z"/>
        <polygon class="cls-1" points="139.99 356.12 132.79 365.29 132.79 365.29 119.54 382.14 99.03 332.47 82.65 323.01 82.65 408.14 99.03 417.6 99.03 360.85 115.43 400.87 115.43 400.87 119.34 410.4 119.76 410.65 139.99 384.49 139.99 396.21 139.99 396.21 140 441.25 156.38 450.71 156.38 365.57 139.99 356.12"/>
        <path class="cls-1" d="M156.63,329l6.71,16.38-6.71-3.87V329m-.25-1.27v13.92l7.47,4.31-7.47-18.23Z"/>
        <path class="cls-1" d="M99.29,362.12l15.9,38.8V408l-15.88,9.17V362.12M99,360.85V417.6h0l16.38-9.46v-7.27l-16.4-40Z"/>
        <path class="cls-1" d="M99,313.84l16.19,9.46,17.28,41.94-12.89,16.41L99.27,332.37l0-.08-.07,0-16-9.24L99,313.84m0-.29L82.65,323h0L99,332.47l20.51,49.68,13.25-16.86-17.37-42.16L99,313.55Z"/>
        <path class="cls-1" d="M213.74,313.85l16.13,9.31V408l-16.15,9.31-16.22-9.36-7.18-9-.26-.33-.16.39-17.41,42.06-15.86,9.16V365.43l-.12-.07-16-9.24,15.88-9.17,16.13,9.31v57.88L173,413l20.27-49.48.35-.2.38-.22-.38-.22-3.34-1.93,6.81-8.81v16l.05.07,16.38,21.18.45.58V332.32l-.12-.07-16-9.24,15.91-9.16m0-.29L197.33,323l16.38,9.46v56.75L197.33,368V351.39L189.9,361l3.59,2.07-.42.24-20.3,49.56V356.12l-16.38-9.46L140,356.12h0l16.38,9.46v85.13h0l16.31-9.41,17.44-42.14,7.21,9,16.39,9.46,16.4-9.45V323l-16.38-9.45Z"/>
        <path class="cls-1" d="M156.38,280.73l16.18,9.34L189.84,332l-12.89,16.53-20.34-49.28,0-.08-.07,0-16-9.24,15.89-9.17m0-.29L140,289.9l16.38,9.46L176.88,349l13.25-17L172.76,289.9l-16.38-9.46Z"/>
      </g>
      <path class="cls-1" d="M237.83,190.8l6.71,16.38-6.71-3.87V190.8m-.25-1.27v13.92l7.47,4.31-7.47-18.23Z"/>
      <path class="cls-1" d="M180.49,223.91l15.9,38.8v7.08L180.49,279V223.91m-.25-1.27v56.75h0l16.38-9.46v-7.27l-16.4-40Z"/>
      <path class="cls-1" d="M180.24,175.63l16.19,9.46L213.71,227l-12.89,16.41-20.34-49.28,0-.08-.07,0-16-9.24,15.88-9.17m0-.29-16.38,9.46h0l16.38,9.46,20.51,49.68L214,227.08l-17.37-42.16-16.38-9.58Z"/>
      <path class="cls-1" d="M294.95,175.64l16.13,9.31v84.84l-16.15,9.31-16.22-9.36-7.18-9-.26-.33-.16.39L253.7,302.91l-15.86,9.16V227.22l-.12-.07-16-9.24,15.88-9.17,16.13,9.31v57.88l.48-1.17,20.27-49.48.35-.2.38-.22-.38-.22-3.34-1.93,6.81-8.81v16l.05.07,16.38,21.18.45.58V194.11L295,194l-16-9.24,15.91-9.16m0-.29-16.41,9.44,16.38,9.46V251l-16.38-21.18V213.18l-7.44,9.61,3.59,2.07-.42.24L254,274.66V217.91l-16.38-9.46-16.38,9.46h0l16.38,9.46V312.5h0l16.31-9.41,17.44-42.14,7.21,9,16.39,9.46,16.4-9.45V184.81l-16.38-9.45Z"/>
      <path class="cls-1" d="M237.58,142.52l16.18,9.34L271,193.81l-12.89,16.53-20.34-49.28,0-.08-.07,0-16-9.24,15.89-9.17m0-.29-16.39,9.46,16.38,9.46,20.51,49.68,13.25-17L254,151.69l-16.38-9.46Z"/>
    </g>
  </g>
</svg>
