<svg xmlns="http://www.w3.org/2000/svg" viewBox="0 0 48.39 49.12">
  <defs>
    <style>
      .cls-1 {
        opacity: 0.5;
      }

      .cls-2, .cls-4 {
        fill: #fff;
      }

      .cls-2, .cls-3, .cls-4, .cls-5 {
        stroke: #000;
        stroke-width: 0.08px;
      }

      .cls-2, .cls-5 {
        stroke-linejoin: round;
      }

      .cls-3, .cls-5 {
        fill: #b3b3b3;
      }

      .cls-3, .cls-4 {
        stroke-miterlimit: 10;
      }
    </style>
  </defs>
  <title>Asset 1</title>
  <g id="Layer_2" data-name="Layer 2">
    <g id="Layer_3" data-name="Layer 3">
      <g class="cls-1">
        <g>
          <path class="cls-2" d="M24.24,48.85l-6-2.12c0-3.88,0-19.83,0-19.83l-.11,0S13,35.42,12.25,36.64c0-.05-6.07-13.85-6.07-13.85V42.62l-6-2.07V8.44l6,2.05,6,14.09,6-9.92,6.06,2Z"/>
          <path class="cls-3" d="M24.23,48.85c0-5.7,0-32.14,0-32.14l6.06-2V34.53l6-13.79,6.05,9.62V10.61l6-2.07v32l-6,2.11-6-9.89-6,14Z"/>
          <polygon class="cls-4" points="42.38 10.61 42.38 30.37 36.33 20.75 30.32 18.67 30.32 18.3 36.41 8.54 42.38 10.61"/>
          <polygon class="cls-4" points="16.22 17.94 12.19 24.59 6.18 10.49 12.17 8.51 16.22 17.94"/>
          <polygon class="cls-2" points="18.33 14.63 18.33 2.27 24.26 4.34 28.39 14.03 24.26 12.64 18.33 14.63"/>
          <polygon class="cls-4" points="28.39 14.03 24.26 4.34 30.19 2.27 34.39 11.77 30.32 18.3 30.32 14.67 28.39 14.03"/>
          <polygon class="cls-5" points="6.17 42.62 6.18 22.79 12.25 36.64 14.15 36.02 12.2 40.55 6.17 42.62"/>
          <path class="cls-4" d="M34.37,37.29l2-4.63,6,10-6.1-2.08Z"/>
          <polygon class="cls-2" points="30.19 2.27 24.26 4.34 18.32 2.27 24.26 0.2 30.19 2.27"/>
          <polygon class="cls-5" points="12.25 36.64 18.15 26.88 18.25 26.9 18.25 34.65 12.25 36.64"/>
          <polygon class="cls-4" points="18.33 14.52 18.33 14.63 18.2 14.67 16.22 17.94 14.13 13.07 18.33 14.52"/>
          <path class="cls-2" d="M6,6.42l-5.83,2c.47.18,6,2.05,6,2.05l6-2Z"/>
          <polygon class="cls-4" points="30.32 18.67 36.33 20.75 30.32 34.53 30.32 18.67"/>
          <polygon class="cls-2" points="30.32 14.67 24.26 16.71 18.2 14.67 24.26 12.64 30.32 14.67"/>
          <polygon class="cls-2" points="42.38 10.61 36.41 8.54 42.38 6.47 48.35 8.54 42.38 10.61"/>
        </g>
        <path d="M24.31.16h0l5.92,2.07h0l4.18,9.46,2-3.19h0l6-2.07h0L48.31,8.5h0v.05h0v32l-5.9,2.1.08.05-.07,0h0v0l-6.1-2.08h0l-1.83-3.18-4,9.42h0l-6.06,2.08v-.25s0-.25,0-.25h0v.5l-6-2.11a0,0,0,0,1,0,0c0-2,0-7.22,0-11.86l-4,1.51h0l-1.94,4.35s0-.07,0-.06l-6,2v-.32h0v.14l0,.07-5.93-2s0,0,0,0V8.38H0l.09,0H.21L6,6.37h0l6.14,2.09h0L14.17,13l4.09,1.43V2.3s0,0,0,0,0,0,.06,0L24.29.16h0m0-.16h-.07L18.3,2.08c-.08,0-.07.08-.09.14s0,0,0,.08V14.24l-3.89-1.33-2-4.52-.08-.15-.12,0L6.13,6.22H6l-5.83,2h.1c-.16,0,0,.16,0,.16V40.56c0,.13,0,.18,0,.19l5.93,2.07h.08l6-2.07a.2.2,0,0,0,.12-.11l1.92-4.46,3.74-1.24c0,4.31,0,9.77,0,11.8,0,.14.2.18.23.19L24.26,49v.13l.11-.06h0l0,0,6-2.07h0l.07,0,0-.07,3.91-9.12,1.67,2.9h0l0,.05.06,0,6,2.06,0,.08.09,0h0l.51.17-.23-.3,5.61-2-.05,0V8.5h0V8.24l0,.09-5.81-2h-.07l-5.89,2-.08,0-.07.11-1.83,2.93L30.41,2.16,30.35,2l-.11,0L24.37,0Z"/>
      </g>
    </g>
  </g>
</svg>
